<svg xmlns="http://www.w3.org/2000/svg" xmlns:xlink="http://www.w3.org/1999/xlink" width="1500" zoomAndPan="magnify" viewBox="0 0 1125 374.999991" height="500" preserveAspectRatio="xMidYMid meet" version="1.0"><defs><g/><clipPath id="a62310783c"><path d="M 1.007812 12.289062 L 252.984375 12.289062 L 252.984375 260.390625 L 1.007812 260.390625 Z M 1.007812 12.289062 " clip-rule="nonzero"/></clipPath><clipPath id="cab0361d88"><path d="M 19.757812 12.289062 L 233.660156 12.289062 C 244.015625 12.289062 252.410156 20.6875 252.410156 31.039062 L 252.410156 241.640625 C 252.410156 251.996094 244.015625 260.390625 233.660156 260.390625 L 19.757812 260.390625 C 9.402344 260.390625 1.007812 251.996094 1.007812 241.640625 L 1.007812 31.039062 C 1.007812 20.6875 9.402344 12.289062 19.757812 12.289062 Z M 19.757812 12.289062 " clip-rule="nonzero"/></clipPath><clipPath id="0660b55cd1"><path d="M 0.0078125 0.289062 L 251.558594 0.289062 L 251.558594 248.390625 L 0.0078125 248.390625 Z M 0.0078125 0.289062 " clip-rule="nonzero"/></clipPath><clipPath id="8e30e0bc0a"><path d="M 18.757812 0.289062 L 232.660156 0.289062 C 243.015625 0.289062 251.410156 8.6875 251.410156 19.039062 L 251.410156 229.640625 C 251.410156 239.996094 243.015625 248.390625 232.660156 248.390625 L 18.757812 248.390625 C 8.402344 248.390625 0.0078125 239.996094 0.0078125 229.640625 L 0.0078125 19.039062 C 0.0078125 8.6875 8.402344 0.289062 18.757812 0.289062 Z M 18.757812 0.289062 " clip-rule="nonzero"/></clipPath><clipPath id="a37680fa5e"><rect x="0" width="252" y="0" height="249"/></clipPath><clipPath id="0952f53ecf"><path d="M 12.6875 0.609375 L 264.664062 0.609375 L 264.664062 248.710938 L 12.6875 248.710938 Z M 12.6875 0.609375 " clip-rule="nonzero"/></clipPath><clipPath id="32138fe962"><path d="M 31.4375 0.609375 L 245.339844 0.609375 C 255.695312 0.609375 264.089844 9.003906 264.089844 19.359375 L 264.089844 229.960938 C 264.089844 240.3125 255.695312 248.710938 245.339844 248.710938 L 31.4375 248.710938 C 21.082031 248.710938 12.6875 240.3125 12.6875 229.960938 L 12.6875 19.359375 C 12.6875 9.003906 21.082031 0.609375 31.4375 0.609375 Z M 31.4375 0.609375 " clip-rule="nonzero"/></clipPath><clipPath id="4c300a8737"><path d="M 0.6875 0.609375 L 252 0.609375 L 252 248.710938 L 0.6875 248.710938 Z M 0.6875 0.609375 " clip-rule="nonzero"/></clipPath><clipPath id="173d999909"><path d="M 19.4375 0.609375 L 233.339844 0.609375 C 243.695312 0.609375 252.089844 9.003906 252.089844 19.359375 L 252.089844 229.960938 C 252.089844 240.3125 243.695312 248.710938 233.339844 248.710938 L 19.4375 248.710938 C 9.082031 248.710938 0.6875 240.3125 0.6875 229.960938 L 0.6875 19.359375 C 0.6875 9.003906 9.082031 0.609375 19.4375 0.609375 Z M 19.4375 0.609375 " clip-rule="nonzero"/></clipPath><clipPath id="b4f9d6948c"><rect x="0" width="253" y="0" height="249"/></clipPath><clipPath id="273dff1792"><path d="M 85 61 L 206 61 L 206 182 L 85 182 Z M 85 61 " clip-rule="nonzero"/></clipPath><clipPath id="8392137aff"><path d="M 77.050781 80.097656 L 145.855469 11.289062 L 255.8125 121.25 L 187.007812 190.054688 Z M 77.050781 80.097656 " clip-rule="nonzero"/></clipPath><clipPath id="d40677ab8a"><path d="M 77.050781 80.097656 L 145.855469 11.289062 L 255.8125 121.25 L 187.007812 190.054688 Z M 77.050781 80.097656 " clip-rule="nonzero"/></clipPath><clipPath id="f246debc6c"><path d="M 154.894531 82.109375 L 184.90625 82.109375 L 184.90625 112.121094 L 154.894531 112.121094 Z M 154.894531 82.109375 " clip-rule="nonzero"/></clipPath><clipPath id="eccf5b260f"><path d="M 57 116 L 148 116 L 148 206 L 57 206 Z M 57 116 " clip-rule="nonzero"/></clipPath><clipPath id="eccd57bb3a"><path d="M 51.378906 130.027344 L 102.824219 78.585938 L 185.132812 160.894531 L 133.6875 212.335938 Z M 51.378906 130.027344 " clip-rule="nonzero"/></clipPath><clipPath id="7ae569c5b4"><path d="M 51.378906 130.027344 L 102.824219 78.585938 L 185.132812 160.894531 L 133.6875 212.335938 Z M 51.378906 130.027344 " clip-rule="nonzero"/></clipPath><clipPath id="4ba8ea57ac"><path d="M 109.40625 131.535156 L 132.140625 131.535156 L 132.140625 154.269531 L 109.40625 154.269531 Z M 109.40625 131.535156 " clip-rule="nonzero"/></clipPath><clipPath id="62a69ef915"><rect x="0" width="265" y="0" height="261"/></clipPath><clipPath id="0777320610"><rect x="0" width="823" y="0" height="253"/></clipPath></defs><g transform="matrix(1, 0, 0, 1, 16, 57)"><g clip-path="url(#62a69ef915)"><g clip-path="url(#a62310783c)"><g clip-path="url(#cab0361d88)"><g transform="matrix(1, 0, 0, 1, 1, 12)"><g clip-path="url(#a37680fa5e)"><g clip-path="url(#0660b55cd1)"><g clip-path="url(#8e30e0bc0a)"><path fill="#000000" d="M 0.0078125 0.289062 L 251.011719 0.289062 L 251.011719 248.390625 L 0.0078125 248.390625 Z M 0.0078125 0.289062 " fill-opacity="1" fill-rule="nonzero"/></g></g></g></g></g></g><g clip-path="url(#0952f53ecf)"><g clip-path="url(#32138fe962)"><g transform="matrix(1, 0, 0, 1, 12, 0)"><g clip-path="url(#b4f9d6948c)"><g clip-path="url(#4c300a8737)"><g clip-path="url(#173d999909)"><path fill="#1364db" d="M 0.6875 0.609375 L 251.695312 0.609375 L 251.695312 248.710938 L 0.6875 248.710938 Z M 0.6875 0.609375 " fill-opacity="1" fill-rule="nonzero"/></g></g></g></g></g></g><g clip-path="url(#273dff1792)"><g clip-path="url(#8392137aff)"><g clip-path="url(#d40677ab8a)"><path fill="#fff7e9" d="M 102.179688 61.894531 C 97.71875 61.894531 93.519531 63.625 90.363281 66.785156 C 87.203125 69.941406 85.480469 74.132812 85.480469 78.59375 C 85.480469 87.804688 92.976562 95.300781 102.1875 95.316406 L 168.855469 95.386719 C 170.386719 95.386719 171.628906 96.625 171.628906 98.160156 L 171.699219 164.828125 C 171.707031 174.03125 179.210938 181.535156 188.421875 181.535156 C 192.890625 181.542969 197.074219 179.808594 200.230469 176.652344 C 203.386719 173.496094 205.128906 169.304688 205.121094 164.835938 L 205.082031 78.65625 C 205.082031 74.179688 203.351562 69.980469 200.191406 66.820312 C 197.035156 63.664062 192.835938 61.933594 188.367188 61.941406 L 102.179688 61.894531 " fill-opacity="1" fill-rule="nonzero"/></g></g></g><g clip-path="url(#f246debc6c)"><path fill="#fff7e9" d="M 171.464844 112.289062 L 184.90625 112.289062 C 184.90625 95.621094 171.394531 82.109375 154.726562 82.109375 L 154.726562 95.550781 C 163.972656 95.550781 171.464844 103.042969 171.464844 112.289062 Z M 171.464844 112.289062 " fill-opacity="1" fill-rule="nonzero"/></g><g clip-path="url(#eccf5b260f)"><g clip-path="url(#eccd57bb3a)"><g clip-path="url(#7ae569c5b4)"><path fill="#fff7e9" d="M 70.199219 116.398438 C 66.859375 116.398438 63.714844 117.695312 61.347656 120.058594 C 58.984375 122.421875 57.691406 125.5625 57.691406 128.902344 C 57.691406 135.800781 63.304688 141.414062 70.203125 141.425781 L 120.132812 141.476562 C 121.277344 141.476562 122.207031 142.40625 122.207031 143.554688 L 122.261719 193.480469 C 122.265625 200.375 127.886719 205.992188 134.785156 205.992188 C 138.128906 206 141.261719 204.703125 143.628906 202.335938 C 145.992188 199.972656 147.296875 196.832031 147.289062 193.488281 L 147.261719 128.949219 C 147.261719 125.597656 145.964844 122.453125 143.597656 120.085938 C 141.234375 117.722656 138.089844 116.425781 134.742188 116.429688 L 70.199219 116.398438 " fill-opacity="1" fill-rule="nonzero"/></g></g></g><g clip-path="url(#4ba8ea57ac)"><path fill="#fff7e9" d="M 122.082031 154.125 L 132.140625 154.125 C 132.140625 141.648438 122.027344 131.535156 109.550781 131.535156 L 109.550781 141.59375 C 116.46875 141.59375 122.082031 147.207031 122.082031 154.125 Z M 122.082031 154.125 " fill-opacity="1" fill-rule="nonzero"/></g></g></g><g transform="matrix(1, 0, 0, 1, 301, 17)"><g clip-path="url(#0777320610)"><g fill="#232324" fill-opacity="1"><g transform="translate(-6.3237, 219.206139)"><g><path d="M 19.34375 0 C 16.675781 0 14.394531 -0.941406 12.5 -2.828125 C 10.613281 -4.722656 9.671875 -7.003906 9.671875 -9.671875 L 9.671875 -33.625 C 9.671875 -36.4375 10.613281 -38.75 12.5 -40.5625 C 14.394531 -42.382812 16.675781 -43.296875 19.34375 -43.296875 L 105.109375 -43.296875 C 107.910156 -43.296875 110.21875 -44.207031 112.03125 -46.03125 C 113.851562 -47.851562 114.765625 -50.097656 114.765625 -52.765625 C 114.765625 -55.421875 113.851562 -57.695312 112.03125 -59.59375 C 110.21875 -61.488281 107.910156 -62.4375 105.109375 -62.4375 L 55.703125 -62.4375 C 46.878906 -62.4375 39 -64.429688 32.0625 -68.421875 C 25.125 -72.410156 19.65625 -77.875 15.65625 -84.8125 C 11.664062 -91.75 9.671875 -99.632812 9.671875 -108.46875 L 9.671875 -122.125 C 9.671875 -131.09375 11.664062 -139.007812 15.65625 -145.875 C 19.65625 -152.75 25.125 -158.179688 32.0625 -162.171875 C 39 -166.160156 46.878906 -168.15625 55.703125 -168.15625 L 159.546875 -168.15625 C 162.347656 -168.15625 164.660156 -167.242188 166.484375 -165.421875 C 168.304688 -163.609375 169.21875 -161.300781 169.21875 -158.5 L 169.21875 -134.734375 C 169.21875 -132.078125 168.304688 -129.800781 166.484375 -127.90625 C 164.660156 -126.019531 162.347656 -125.078125 159.546875 -125.078125 L 73.578125 -125.078125 C 70.910156 -125.078125 68.664062 -124.164062 66.84375 -122.34375 C 65.019531 -120.519531 64.109375 -118.207031 64.109375 -115.40625 C 64.109375 -112.738281 65.019531 -110.492188 66.84375 -108.671875 C 68.664062 -106.847656 70.910156 -105.9375 73.578125 -105.9375 L 123.171875 -105.9375 C 132.140625 -105.9375 140.054688 -103.9375 146.921875 -99.9375 C 153.796875 -95.945312 159.226562 -90.519531 163.21875 -83.65625 C 167.21875 -76.789062 169.21875 -68.875 169.21875 -59.90625 L 169.21875 -46.25 C 169.21875 -37.414062 167.21875 -29.492188 163.21875 -22.484375 C 159.226562 -15.484375 153.796875 -9.984375 146.921875 -5.984375 C 140.054688 -1.992188 132.140625 0 123.171875 0 Z M 19.34375 0 "/></g></g></g><g fill="#232324" fill-opacity="1"><g transform="translate(172.554671, 219.206139)"><g><path d="M 56.75 0 C 47.644531 0 39.550781 -2.03125 32.46875 -6.09375 C 25.394531 -10.15625 19.828125 -15.757812 15.765625 -22.90625 C 11.703125 -30.050781 9.671875 -38.179688 9.671875 -47.296875 L 9.671875 -121.078125 C 9.671875 -130.179688 11.703125 -138.269531 15.765625 -145.34375 C 19.828125 -152.425781 25.394531 -158 32.46875 -162.0625 C 39.550781 -166.125 47.644531 -168.15625 56.75 -168.15625 L 159.546875 -168.15625 C 162.347656 -168.15625 164.660156 -167.242188 166.484375 -165.421875 C 168.304688 -163.609375 169.21875 -161.300781 169.21875 -158.5 L 169.21875 -130.53125 C 169.21875 -127.875 168.304688 -125.597656 166.484375 -123.703125 C 164.660156 -121.804688 162.347656 -120.859375 159.546875 -120.859375 L 73.578125 -120.859375 C 70.910156 -120.859375 68.664062 -119.945312 66.84375 -118.125 C 65.019531 -116.3125 64.109375 -114.003906 64.109375 -111.203125 L 64.109375 -56.96875 C 64.109375 -54.300781 65.019531 -52.054688 66.84375 -50.234375 C 68.664062 -48.410156 70.910156 -47.5 73.578125 -47.5 L 159.546875 -47.5 C 162.347656 -47.5 164.660156 -46.585938 166.484375 -44.765625 C 168.304688 -42.953125 169.21875 -40.644531 169.21875 -37.84375 L 169.21875 -9.875 C 169.21875 -7.21875 168.304688 -4.90625 166.484375 -2.9375 C 164.660156 -0.976562 162.347656 0 159.546875 0 Z M 56.75 0 "/></g></g></g><g fill="#232324" fill-opacity="1"><g transform="translate(351.433043, 219.206139)"><g><path d="M 19.34375 0 C 16.675781 0 14.394531 -0.941406 12.5 -2.828125 C 10.613281 -4.722656 9.671875 -7.003906 9.671875 -9.671875 L 9.671875 -121.078125 C 9.671875 -130.179688 11.703125 -138.269531 15.765625 -145.34375 C 19.828125 -152.425781 25.394531 -158 32.46875 -162.0625 C 39.550781 -166.125 47.644531 -168.15625 56.75 -168.15625 L 90.59375 -168.15625 C 99.707031 -168.15625 107.800781 -166.125 114.875 -162.0625 C 121.945312 -158 127.515625 -152.425781 131.578125 -145.34375 C 135.648438 -138.269531 137.6875 -130.179688 137.6875 -121.078125 L 137.6875 -9.671875 C 137.6875 -7.003906 136.773438 -4.722656 134.953125 -2.828125 C 133.128906 -0.941406 130.816406 0 128.015625 0 L 92.90625 0 C 90.25 0 87.972656 -0.941406 86.078125 -2.828125 C 84.179688 -4.722656 83.234375 -7.003906 83.234375 -9.671875 L 83.234375 -36.78125 C 83.234375 -39.445312 82.320312 -41.722656 80.5 -43.609375 C 78.6875 -45.503906 76.378906 -46.453125 73.578125 -46.453125 C 70.910156 -46.453125 68.664062 -45.539062 66.84375 -43.71875 C 65.019531 -41.894531 64.109375 -39.582031 64.109375 -36.78125 L 64.109375 -9.671875 C 64.109375 -7.003906 63.195312 -4.722656 61.375 -2.828125 C 59.550781 -0.941406 57.238281 0 54.4375 0 Z M 73.578125 -85.546875 C 76.378906 -85.546875 78.6875 -86.457031 80.5 -88.28125 C 82.320312 -90.101562 83.234375 -92.347656 83.234375 -95.015625 L 83.234375 -114.34375 C 83.234375 -117.144531 82.320312 -119.457031 80.5 -121.28125 C 78.6875 -123.101562 76.378906 -124.015625 73.578125 -124.015625 C 70.910156 -124.015625 68.664062 -123.101562 66.84375 -121.28125 C 65.019531 -119.457031 64.109375 -117.144531 64.109375 -114.34375 L 64.109375 -95.015625 C 64.109375 -92.347656 65.019531 -90.101562 66.84375 -88.28125 C 68.664062 -86.457031 70.910156 -85.546875 73.578125 -85.546875 Z M 73.578125 -85.546875 "/></g></g></g><g fill="#232324" fill-opacity="1"><g transform="translate(498.781752, 219.206139)"><g><path d="M 19.34375 0 C 16.675781 0 14.394531 -0.941406 12.5 -2.828125 C 10.613281 -4.722656 9.671875 -7.003906 9.671875 -9.671875 L 9.671875 -158.5 C 9.671875 -161.300781 10.613281 -163.609375 12.5 -165.421875 C 14.394531 -167.242188 16.675781 -168.15625 19.34375 -168.15625 L 54.4375 -168.15625 C 57.238281 -168.15625 59.550781 -167.242188 61.375 -165.421875 C 63.195312 -163.609375 64.109375 -161.300781 64.109375 -158.5 L 64.109375 -56.96875 C 64.109375 -54.300781 65.050781 -52.054688 66.9375 -50.234375 C 68.832031 -48.410156 71.113281 -47.5 73.78125 -47.5 L 117.5 -47.5 C 120.300781 -47.5 122.613281 -46.585938 124.4375 -44.765625 C 126.257812 -42.953125 127.171875 -40.644531 127.171875 -37.84375 L 127.171875 -9.671875 C 127.171875 -7.003906 126.257812 -4.722656 124.4375 -2.828125 C 122.613281 -0.941406 120.300781 0 117.5 0 Z M 19.34375 0 "/></g></g></g><g fill="#232324" fill-opacity="1"><g transform="translate(635.620556, 219.206139)"><g><path d="M 19.34375 0 C 16.675781 0 14.394531 -0.941406 12.5 -2.828125 C 10.613281 -4.722656 9.671875 -7.003906 9.671875 -9.671875 L 9.671875 -34.046875 C 9.671875 -36.847656 10.613281 -39.160156 12.5 -40.984375 C 14.394531 -42.804688 16.675781 -43.71875 19.34375 -43.71875 L 105.3125 -43.71875 C 107.976562 -43.71875 110.21875 -44.660156 112.03125 -46.546875 C 113.851562 -48.441406 114.765625 -50.722656 114.765625 -53.390625 C 114.765625 -56.054688 113.851562 -58.296875 112.03125 -60.109375 C 110.21875 -61.929688 107.976562 -62.84375 105.3125 -62.84375 L 26.703125 -62.84375 C 24.035156 -62.84375 21.753906 -63.789062 19.859375 -65.6875 C 17.972656 -67.582031 17.03125 -69.859375 17.03125 -72.515625 L 17.03125 -96.265625 C 17.03125 -99.078125 17.972656 -101.390625 19.859375 -103.203125 C 21.753906 -105.023438 24.035156 -105.9375 26.703125 -105.9375 L 105.3125 -105.9375 C 107.976562 -105.9375 110.21875 -106.847656 112.03125 -108.671875 C 113.851562 -110.492188 114.765625 -112.738281 114.765625 -115.40625 C 114.765625 -118.0625 113.851562 -120.335938 112.03125 -122.234375 C 110.21875 -124.128906 107.976562 -125.078125 105.3125 -125.078125 L 19.34375 -125.078125 C 16.675781 -125.078125 14.394531 -126.019531 12.5 -127.90625 C 10.613281 -129.800781 9.671875 -132.078125 9.671875 -134.734375 L 9.671875 -158.5 C 9.671875 -161.300781 10.613281 -163.609375 12.5 -165.421875 C 14.394531 -167.242188 16.675781 -168.15625 19.34375 -168.15625 L 128.859375 -168.15625 C 136.703125 -168.15625 143.671875 -166.40625 149.765625 -162.90625 C 155.859375 -159.40625 160.65625 -154.601562 164.15625 -148.5 C 167.664062 -142.40625 169.421875 -135.4375 169.421875 -127.59375 L 169.421875 -110.78125 C 169.421875 -105.875 167.804688 -101.804688 164.578125 -98.578125 C 161.359375 -95.359375 157.226562 -93.75 152.1875 -93.75 L 147.765625 -93.75 C 145.109375 -93.75 142.972656 -92.800781 141.359375 -90.90625 C 139.742188 -89.019531 138.9375 -86.742188 138.9375 -84.078125 C 138.9375 -81.421875 139.742188 -79.179688 141.359375 -77.359375 C 142.972656 -75.535156 145.109375 -74.625 147.765625 -74.625 L 152.1875 -74.625 C 157.226562 -74.625 161.359375 -73.007812 164.578125 -69.78125 C 167.804688 -66.5625 169.421875 -62.429688 169.421875 -57.390625 L 169.421875 -40.78125 C 169.421875 -32.9375 167.664062 -25.929688 164.15625 -19.765625 C 160.65625 -13.597656 155.859375 -8.757812 149.765625 -5.25 C 143.671875 -1.75 136.703125 0 128.859375 0 Z M 19.34375 0 "/></g></g></g><g fill="#1364db" fill-opacity="1"><g transform="translate(0.458056, 209.520785)"><g><path d="M 19.34375 0 C 16.675781 0 14.394531 -0.941406 12.5 -2.828125 C 10.613281 -4.722656 9.671875 -7.003906 9.671875 -9.671875 L 9.671875 -33.625 C 9.671875 -36.4375 10.613281 -38.75 12.5 -40.5625 C 14.394531 -42.382812 16.675781 -43.296875 19.34375 -43.296875 L 105.109375 -43.296875 C 107.910156 -43.296875 110.21875 -44.207031 112.03125 -46.03125 C 113.851562 -47.851562 114.765625 -50.097656 114.765625 -52.765625 C 114.765625 -55.421875 113.851562 -57.695312 112.03125 -59.59375 C 110.21875 -61.488281 107.910156 -62.4375 105.109375 -62.4375 L 55.703125 -62.4375 C 46.878906 -62.4375 39 -64.429688 32.0625 -68.421875 C 25.125 -72.410156 19.65625 -77.875 15.65625 -84.8125 C 11.664062 -91.75 9.671875 -99.632812 9.671875 -108.46875 L 9.671875 -122.125 C 9.671875 -131.09375 11.664062 -139.007812 15.65625 -145.875 C 19.65625 -152.75 25.125 -158.179688 32.0625 -162.171875 C 39 -166.160156 46.878906 -168.15625 55.703125 -168.15625 L 159.546875 -168.15625 C 162.347656 -168.15625 164.660156 -167.242188 166.484375 -165.421875 C 168.304688 -163.609375 169.21875 -161.300781 169.21875 -158.5 L 169.21875 -134.734375 C 169.21875 -132.078125 168.304688 -129.800781 166.484375 -127.90625 C 164.660156 -126.019531 162.347656 -125.078125 159.546875 -125.078125 L 73.578125 -125.078125 C 70.910156 -125.078125 68.664062 -124.164062 66.84375 -122.34375 C 65.019531 -120.519531 64.109375 -118.207031 64.109375 -115.40625 C 64.109375 -112.738281 65.019531 -110.492188 66.84375 -108.671875 C 68.664062 -106.847656 70.910156 -105.9375 73.578125 -105.9375 L 123.171875 -105.9375 C 132.140625 -105.9375 140.054688 -103.9375 146.921875 -99.9375 C 153.796875 -95.945312 159.226562 -90.519531 163.21875 -83.65625 C 167.21875 -76.789062 169.21875 -68.875 169.21875 -59.90625 L 169.21875 -46.25 C 169.21875 -37.414062 167.21875 -29.492188 163.21875 -22.484375 C 159.226562 -15.484375 153.796875 -9.984375 146.921875 -5.984375 C 140.054688 -1.992188 132.140625 0 123.171875 0 Z M 19.34375 0 "/></g></g></g><g fill="#1364db" fill-opacity="1"><g transform="translate(179.336428, 209.520785)"><g><path d="M 56.75 0 C 47.644531 0 39.550781 -2.03125 32.46875 -6.09375 C 25.394531 -10.15625 19.828125 -15.757812 15.765625 -22.90625 C 11.703125 -30.050781 9.671875 -38.179688 9.671875 -47.296875 L 9.671875 -121.078125 C 9.671875 -130.179688 11.703125 -138.269531 15.765625 -145.34375 C 19.828125 -152.425781 25.394531 -158 32.46875 -162.0625 C 39.550781 -166.125 47.644531 -168.15625 56.75 -168.15625 L 159.546875 -168.15625 C 162.347656 -168.15625 164.660156 -167.242188 166.484375 -165.421875 C 168.304688 -163.609375 169.21875 -161.300781 169.21875 -158.5 L 169.21875 -130.53125 C 169.21875 -127.875 168.304688 -125.597656 166.484375 -123.703125 C 164.660156 -121.804688 162.347656 -120.859375 159.546875 -120.859375 L 73.578125 -120.859375 C 70.910156 -120.859375 68.664062 -119.945312 66.84375 -118.125 C 65.019531 -116.3125 64.109375 -114.003906 64.109375 -111.203125 L 64.109375 -56.96875 C 64.109375 -54.300781 65.019531 -52.054688 66.84375 -50.234375 C 68.664062 -48.410156 70.910156 -47.5 73.578125 -47.5 L 159.546875 -47.5 C 162.347656 -47.5 164.660156 -46.585938 166.484375 -44.765625 C 168.304688 -42.953125 169.21875 -40.644531 169.21875 -37.84375 L 169.21875 -9.875 C 169.21875 -7.21875 168.304688 -4.90625 166.484375 -2.9375 C 164.660156 -0.976562 162.347656 0 159.546875 0 Z M 56.75 0 "/></g></g></g><g fill="#1364db" fill-opacity="1"><g transform="translate(358.214799, 209.520785)"><g><path d="M 19.34375 0 C 16.675781 0 14.394531 -0.941406 12.5 -2.828125 C 10.613281 -4.722656 9.671875 -7.003906 9.671875 -9.671875 L 9.671875 -121.078125 C 9.671875 -130.179688 11.703125 -138.269531 15.765625 -145.34375 C 19.828125 -152.425781 25.394531 -158 32.46875 -162.0625 C 39.550781 -166.125 47.644531 -168.15625 56.75 -168.15625 L 90.59375 -168.15625 C 99.707031 -168.15625 107.800781 -166.125 114.875 -162.0625 C 121.945312 -158 127.515625 -152.425781 131.578125 -145.34375 C 135.648438 -138.269531 137.6875 -130.179688 137.6875 -121.078125 L 137.6875 -9.671875 C 137.6875 -7.003906 136.773438 -4.722656 134.953125 -2.828125 C 133.128906 -0.941406 130.816406 0 128.015625 0 L 92.90625 0 C 90.25 0 87.972656 -0.941406 86.078125 -2.828125 C 84.179688 -4.722656 83.234375 -7.003906 83.234375 -9.671875 L 83.234375 -36.78125 C 83.234375 -39.445312 82.320312 -41.722656 80.5 -43.609375 C 78.6875 -45.503906 76.378906 -46.453125 73.578125 -46.453125 C 70.910156 -46.453125 68.664062 -45.539062 66.84375 -43.71875 C 65.019531 -41.894531 64.109375 -39.582031 64.109375 -36.78125 L 64.109375 -9.671875 C 64.109375 -7.003906 63.195312 -4.722656 61.375 -2.828125 C 59.550781 -0.941406 57.238281 0 54.4375 0 Z M 73.578125 -85.546875 C 76.378906 -85.546875 78.6875 -86.457031 80.5 -88.28125 C 82.320312 -90.101562 83.234375 -92.347656 83.234375 -95.015625 L 83.234375 -114.34375 C 83.234375 -117.144531 82.320312 -119.457031 80.5 -121.28125 C 78.6875 -123.101562 76.378906 -124.015625 73.578125 -124.015625 C 70.910156 -124.015625 68.664062 -123.101562 66.84375 -121.28125 C 65.019531 -119.457031 64.109375 -117.144531 64.109375 -114.34375 L 64.109375 -95.015625 C 64.109375 -92.347656 65.019531 -90.101562 66.84375 -88.28125 C 68.664062 -86.457031 70.910156 -85.546875 73.578125 -85.546875 Z M 73.578125 -85.546875 "/></g></g></g><g fill="#1364db" fill-opacity="1"><g transform="translate(505.563508, 209.520785)"><g><path d="M 19.34375 0 C 16.675781 0 14.394531 -0.941406 12.5 -2.828125 C 10.613281 -4.722656 9.671875 -7.003906 9.671875 -9.671875 L 9.671875 -158.5 C 9.671875 -161.300781 10.613281 -163.609375 12.5 -165.421875 C 14.394531 -167.242188 16.675781 -168.15625 19.34375 -168.15625 L 54.4375 -168.15625 C 57.238281 -168.15625 59.550781 -167.242188 61.375 -165.421875 C 63.195312 -163.609375 64.109375 -161.300781 64.109375 -158.5 L 64.109375 -56.96875 C 64.109375 -54.300781 65.050781 -52.054688 66.9375 -50.234375 C 68.832031 -48.410156 71.113281 -47.5 73.78125 -47.5 L 117.5 -47.5 C 120.300781 -47.5 122.613281 -46.585938 124.4375 -44.765625 C 126.257812 -42.953125 127.171875 -40.644531 127.171875 -37.84375 L 127.171875 -9.671875 C 127.171875 -7.003906 126.257812 -4.722656 124.4375 -2.828125 C 122.613281 -0.941406 120.300781 0 117.5 0 Z M 19.34375 0 "/></g></g></g><g fill="#1364db" fill-opacity="1"><g transform="translate(642.402312, 209.520785)"><g><path d="M 19.34375 0 C 16.675781 0 14.394531 -0.941406 12.5 -2.828125 C 10.613281 -4.722656 9.671875 -7.003906 9.671875 -9.671875 L 9.671875 -34.046875 C 9.671875 -36.847656 10.613281 -39.160156 12.5 -40.984375 C 14.394531 -42.804688 16.675781 -43.71875 19.34375 -43.71875 L 105.3125 -43.71875 C 107.976562 -43.71875 110.21875 -44.660156 112.03125 -46.546875 C 113.851562 -48.441406 114.765625 -50.722656 114.765625 -53.390625 C 114.765625 -56.054688 113.851562 -58.296875 112.03125 -60.109375 C 110.21875 -61.929688 107.976562 -62.84375 105.3125 -62.84375 L 26.703125 -62.84375 C 24.035156 -62.84375 21.753906 -63.789062 19.859375 -65.6875 C 17.972656 -67.582031 17.03125 -69.859375 17.03125 -72.515625 L 17.03125 -96.265625 C 17.03125 -99.078125 17.972656 -101.390625 19.859375 -103.203125 C 21.753906 -105.023438 24.035156 -105.9375 26.703125 -105.9375 L 105.3125 -105.9375 C 107.976562 -105.9375 110.21875 -106.847656 112.03125 -108.671875 C 113.851562 -110.492188 114.765625 -112.738281 114.765625 -115.40625 C 114.765625 -118.0625 113.851562 -120.335938 112.03125 -122.234375 C 110.21875 -124.128906 107.976562 -125.078125 105.3125 -125.078125 L 19.34375 -125.078125 C 16.675781 -125.078125 14.394531 -126.019531 12.5 -127.90625 C 10.613281 -129.800781 9.671875 -132.078125 9.671875 -134.734375 L 9.671875 -158.5 C 9.671875 -161.300781 10.613281 -163.609375 12.5 -165.421875 C 14.394531 -167.242188 16.675781 -168.15625 19.34375 -168.15625 L 128.859375 -168.15625 C 136.703125 -168.15625 143.671875 -166.40625 149.765625 -162.90625 C 155.859375 -159.40625 160.65625 -154.601562 164.15625 -148.5 C 167.664062 -142.40625 169.421875 -135.4375 169.421875 -127.59375 L 169.421875 -110.78125 C 169.421875 -105.875 167.804688 -101.804688 164.578125 -98.578125 C 161.359375 -95.359375 157.226562 -93.75 152.1875 -93.75 L 147.765625 -93.75 C 145.109375 -93.75 142.972656 -92.800781 141.359375 -90.90625 C 139.742188 -89.019531 138.9375 -86.742188 138.9375 -84.078125 C 138.9375 -81.421875 139.742188 -79.179688 141.359375 -77.359375 C 142.972656 -75.535156 145.109375 -74.625 147.765625 -74.625 L 152.1875 -74.625 C 157.226562 -74.625 161.359375 -73.007812 164.578125 -69.78125 C 167.804688 -66.5625 169.421875 -62.429688 169.421875 -57.390625 L 169.421875 -40.78125 C 169.421875 -32.9375 167.664062 -25.929688 164.15625 -19.765625 C 160.65625 -13.597656 155.859375 -8.757812 149.765625 -5.25 C 143.671875 -1.75 136.703125 0 128.859375 0 Z M 19.34375 0 "/></g></g></g></g></g><g fill="#232324" fill-opacity="1"><g transform="translate(304.658373, 308.800057)"><g><path d="M 29.234375 1.078125 C 23.765625 1.078125 18.953125 0.0234375 14.796875 -2.078125 C 10.640625 -4.191406 7.429688 -7.226562 5.171875 -11.1875 C 2.921875 -15.15625 1.796875 -19.800781 1.796875 -25.125 C 1.796875 -30.457031 2.921875 -35.101562 5.171875 -39.0625 C 7.429688 -43.019531 10.640625 -46.066406 14.796875 -48.203125 C 18.953125 -50.335938 23.765625 -51.40625 29.234375 -51.40625 C 32.828125 -51.40625 36.039062 -51.046875 38.875 -50.328125 C 41.707031 -49.609375 44.328125 -48.476562 46.734375 -46.9375 L 46.734375 -34.84375 C 44.617188 -36.53125 42.226562 -37.753906 39.5625 -38.515625 C 36.894531 -39.285156 33.835938 -39.671875 30.390625 -39.671875 C 25.441406 -39.671875 21.625 -38.382812 18.9375 -35.8125 C 16.25 -33.25 14.90625 -29.6875 14.90625 -25.125 C 14.90625 -20.5625 16.257812 -16.984375 18.96875 -14.390625 C 21.6875 -11.804688 25.492188 -10.515625 30.390625 -10.515625 C 33.835938 -10.515625 36.929688 -10.921875 39.671875 -11.734375 C 42.410156 -12.546875 44.953125 -13.84375 47.296875 -15.625 L 47.296875 -3.59375 C 42.742188 -0.476562 36.722656 1.078125 29.234375 1.078125 Z M 29.234375 1.078125 "/></g></g></g><g fill="#232324" fill-opacity="1"><g transform="translate(376.226342, 308.800057)"><g><path d="M 3.234375 -50.328125 L 25.84375 -50.328125 C 31.75 -50.328125 36.367188 -48.835938 39.703125 -45.859375 C 43.046875 -42.890625 44.71875 -38.617188 44.71875 -33.046875 C 44.71875 -29.304688 43.898438 -26.113281 42.265625 -23.46875 C 40.628906 -20.832031 38.328125 -18.863281 35.359375 -17.5625 L 44.28125 0 L 31.171875 0 L 23.1875 -15.765625 L 15.984375 -15.765625 L 15.984375 0 L 3.234375 0 Z M 23.609375 -26.5 C 26.160156 -26.5 28.128906 -26.988281 29.515625 -27.96875 C 30.910156 -28.957031 31.609375 -30.648438 31.609375 -33.046875 C 31.609375 -35.546875 30.921875 -37.257812 29.546875 -38.1875 C 28.179688 -39.125 26.203125 -39.59375 23.609375 -39.59375 L 15.984375 -39.59375 L 15.984375 -26.5 Z M 23.609375 -26.5 "/></g></g></g><g fill="#232324" fill-opacity="1"><g transform="translate(445.202317, 308.800057)"><g><path d="M 3.234375 -50.328125 L 38.953125 -50.328125 L 38.953125 -39.59375 L 15.984375 -39.59375 L 15.984375 -30.171875 L 32.765625 -30.171875 L 32.765625 -20.15625 L 15.984375 -20.15625 L 15.984375 -10.734375 L 38.953125 -10.734375 L 38.953125 0 L 3.234375 0 Z M 3.234375 -50.328125 "/></g></g></g><g fill="#232324" fill-opacity="1"><g transform="translate(508.418286, 308.800057)"><g><path d="M 21.953125 -50.328125 L 34.484375 -50.328125 L 54.578125 0 L 41.546875 0 L 37.515625 -10.375 L 18.9375 -10.375 L 14.90625 0 L 1.796875 0 Z M 34.34375 -20.15625 L 28.21875 -37.078125 L 22.03125 -20.15625 Z M 34.34375 -20.15625 "/></g></g></g><g fill="#232324" fill-opacity="1"><g transform="translate(578.258255, 308.800057)"><g><path d="M 14.90625 -39.59375 L 0.71875 -39.59375 L 0.71875 -50.328125 L 41.90625 -50.328125 L 41.90625 -39.59375 L 27.640625 -39.59375 L 27.640625 0 L 14.90625 0 Z M 14.90625 -39.59375 "/></g></g></g><g fill="#232324" fill-opacity="1"><g transform="translate(640.826213, 308.800057)"><g><path d="M 28.875 1.078125 C 23.78125 1.078125 19.179688 -0.0234375 15.078125 -2.234375 C 10.972656 -4.441406 7.734375 -7.523438 5.359375 -11.484375 C 2.984375 -15.441406 1.796875 -19.988281 1.796875 -25.125 C 1.796875 -30.257812 2.984375 -34.816406 5.359375 -38.796875 C 7.734375 -42.785156 10.972656 -45.882812 15.078125 -48.09375 C 19.179688 -50.300781 23.78125 -51.40625 28.875 -51.40625 C 33.914062 -51.40625 38.488281 -50.300781 42.59375 -48.09375 C 46.695312 -45.882812 49.921875 -42.785156 52.265625 -38.796875 C 54.617188 -34.816406 55.796875 -30.257812 55.796875 -25.125 C 55.796875 -19.988281 54.617188 -15.441406 52.265625 -11.484375 C 49.921875 -7.523438 46.695312 -4.441406 42.59375 -2.234375 C 38.488281 -0.0234375 33.914062 1.078125 28.875 1.078125 Z M 28.875 -10.875 C 31.414062 -10.875 33.742188 -11.445312 35.859375 -12.59375 C 37.972656 -13.75 39.648438 -15.40625 40.890625 -17.5625 C 42.140625 -19.726562 42.765625 -22.25 42.765625 -25.125 C 42.765625 -28.007812 42.148438 -30.519531 40.921875 -32.65625 C 39.703125 -34.789062 38.035156 -36.445312 35.921875 -37.625 C 33.816406 -38.800781 31.46875 -39.390625 28.875 -39.390625 C 26.226562 -39.390625 23.847656 -38.800781 21.734375 -37.625 C 19.628906 -36.445312 17.960938 -34.789062 16.734375 -32.65625 C 15.515625 -30.519531 14.90625 -28.007812 14.90625 -25.125 C 14.90625 -22.25 15.515625 -19.726562 16.734375 -17.5625 C 17.960938 -15.40625 19.644531 -13.75 21.78125 -12.59375 C 23.914062 -11.445312 26.28125 -10.875 28.875 -10.875 Z M 28.875 -10.875 "/></g></g></g><g fill="#232324" fill-opacity="1"><g transform="translate(720.890219, 308.800057)"><g><path d="M 3.234375 -50.328125 L 25.84375 -50.328125 C 31.75 -50.328125 36.367188 -48.835938 39.703125 -45.859375 C 43.046875 -42.890625 44.71875 -38.617188 44.71875 -33.046875 C 44.71875 -29.304688 43.898438 -26.113281 42.265625 -23.46875 C 40.628906 -20.832031 38.328125 -18.863281 35.359375 -17.5625 L 44.28125 0 L 31.171875 0 L 23.1875 -15.765625 L 15.984375 -15.765625 L 15.984375 0 L 3.234375 0 Z M 23.609375 -26.5 C 26.160156 -26.5 28.128906 -26.988281 29.515625 -27.96875 C 30.910156 -28.957031 31.609375 -30.648438 31.609375 -33.046875 C 31.609375 -35.546875 30.921875 -37.257812 29.546875 -38.1875 C 28.179688 -39.125 26.203125 -39.59375 23.609375 -39.59375 L 15.984375 -39.59375 L 15.984375 -26.5 Z M 23.609375 -26.5 "/></g></g></g><g fill="#232324" fill-opacity="1"><g transform="translate(785.186143, 308.800057)"><g><path d="M 1.796875 -50.328125 L 15.40625 -50.328125 L 28.21875 -16.84375 L 41.046875 -50.328125 L 54.578125 -50.328125 L 34.484375 0 L 21.953125 0 Z M 1.796875 -50.328125 "/></g></g></g><g fill="#232324" fill-opacity="1"><g transform="translate(864.026134, 308.800057)"><g><path d="M 3.234375 -50.328125 L 38.953125 -50.328125 L 38.953125 -39.59375 L 15.984375 -39.59375 L 15.984375 -30.171875 L 32.765625 -30.171875 L 32.765625 -20.15625 L 15.984375 -20.15625 L 15.984375 -10.734375 L 38.953125 -10.734375 L 38.953125 0 L 3.234375 0 Z M 3.234375 -50.328125 "/></g></g></g><g fill="#232324" fill-opacity="1"><g transform="translate(927.242103, 308.800057)"><g><path d="M 3.234375 -50.328125 L 25.84375 -50.328125 C 31.75 -50.328125 36.367188 -48.835938 39.703125 -45.859375 C 43.046875 -42.890625 44.71875 -38.617188 44.71875 -33.046875 C 44.71875 -29.304688 43.898438 -26.113281 42.265625 -23.46875 C 40.628906 -20.832031 38.328125 -18.863281 35.359375 -17.5625 L 44.28125 0 L 31.171875 0 L 23.1875 -15.765625 L 15.984375 -15.765625 L 15.984375 0 L 3.234375 0 Z M 23.609375 -26.5 C 26.160156 -26.5 28.128906 -26.988281 29.515625 -27.96875 C 30.910156 -28.957031 31.609375 -30.648438 31.609375 -33.046875 C 31.609375 -35.546875 30.921875 -37.257812 29.546875 -38.1875 C 28.179688 -39.125 26.203125 -39.59375 23.609375 -39.59375 L 15.984375 -39.59375 L 15.984375 -26.5 Z M 23.609375 -26.5 "/></g></g></g><g fill="#232324" fill-opacity="1"><g transform="translate(996.218066, 308.800057)"><g><path d="M 18.9375 1.078125 C 15.769531 1.078125 12.625 0.773438 9.5 0.171875 C 6.382812 -0.421875 3.816406 -1.242188 1.796875 -2.296875 L 1.796875 -13.75 C 4.390625 -12.40625 7.085938 -11.394531 9.890625 -10.71875 C 12.703125 -10.050781 15.378906 -9.71875 17.921875 -9.71875 C 20.273438 -9.71875 22.050781 -10.078125 23.25 -10.796875 C 24.457031 -11.515625 25.0625 -12.546875 25.0625 -13.890625 C 25.0625 -14.898438 24.734375 -15.773438 24.078125 -16.515625 C 23.429688 -17.265625 22.484375 -17.953125 21.234375 -18.578125 C 19.992188 -19.203125 18.050781 -20.066406 15.40625 -21.171875 C 10.75 -23.140625 7.363281 -25.320312 5.25 -27.71875 C 3.144531 -30.113281 2.09375 -33.066406 2.09375 -36.578125 C 2.09375 -39.453125 2.894531 -42.015625 4.5 -44.265625 C 6.101562 -46.523438 8.34375 -48.28125 11.21875 -49.53125 C 14.101562 -50.78125 17.421875 -51.40625 21.171875 -51.40625 C 24.242188 -51.40625 26.976562 -51.164062 29.375 -50.6875 C 31.769531 -50.207031 34.070312 -49.441406 36.28125 -48.390625 L 36.28125 -37.21875 C 32.0625 -39.425781 27.816406 -40.53125 23.546875 -40.53125 C 21.242188 -40.53125 19.40625 -40.15625 18.03125 -39.40625 C 16.664062 -38.664062 15.984375 -37.601562 15.984375 -36.21875 C 15.984375 -34.820312 16.675781 -33.691406 18.0625 -32.828125 C 19.457031 -31.960938 22.03125 -30.785156 25.78125 -29.296875 C 29.1875 -27.910156 31.835938 -26.546875 33.734375 -25.203125 C 35.628906 -23.859375 37.007812 -22.296875 37.875 -20.515625 C 38.738281 -18.742188 39.171875 -16.488281 39.171875 -13.75 C 39.171875 -9.09375 37.476562 -5.457031 34.09375 -2.84375 C 30.707031 -0.226562 25.65625 1.078125 18.9375 1.078125 Z M 18.9375 1.078125 "/></g></g></g><g fill="#232324" fill-opacity="1"><g transform="translate(1059.650054, 308.800057)"><g><path d="M 3.234375 -50.328125 L 38.953125 -50.328125 L 38.953125 -39.59375 L 15.984375 -39.59375 L 15.984375 -30.171875 L 32.765625 -30.171875 L 32.765625 -20.15625 L 15.984375 -20.15625 L 15.984375 -10.734375 L 38.953125 -10.734375 L 38.953125 0 L 3.234375 0 Z M 3.234375 -50.328125 "/></g></g></g></svg>