<svg xmlns="http://www.w3.org/2000/svg" xmlns:xlink="http://www.w3.org/1999/xlink" width="1500" zoomAndPan="magnify" viewBox="0 0 1125 374.999991" height="500" preserveAspectRatio="xMidYMid meet" version="1.0"><defs><g/><clipPath id="881ccc1bf8"><path d="M 20.554688 90.011719 L 228 90.011719 L 228 294.621094 L 20.554688 294.621094 Z M 20.554688 90.011719 " clip-rule="nonzero"/></clipPath><clipPath id="f51ba9ac01"><path d="M 39.304688 90.011719 L 209.140625 90.011719 C 214.113281 90.011719 218.882812 91.984375 222.398438 95.503906 C 225.914062 99.019531 227.890625 103.789062 227.890625 108.761719 L 227.890625 275.871094 C 227.890625 280.84375 225.914062 285.613281 222.398438 289.132812 C 218.882812 292.648438 214.113281 294.621094 209.140625 294.621094 L 39.304688 294.621094 C 34.332031 294.621094 29.5625 292.648438 26.046875 289.132812 C 22.527344 285.613281 20.554688 280.84375 20.554688 275.871094 L 20.554688 108.761719 C 20.554688 103.789062 22.527344 99.019531 26.046875 95.503906 C 29.5625 91.984375 34.332031 90.011719 39.304688 90.011719 Z M 39.304688 90.011719 " clip-rule="nonzero"/></clipPath><clipPath id="a7e2910404"><path d="M 0.554688 0.0117188 L 208 0.0117188 L 208 204.621094 L 0.554688 204.621094 Z M 0.554688 0.0117188 " clip-rule="nonzero"/></clipPath><clipPath id="f31ef70f46"><path d="M 19.304688 0.0117188 L 189.140625 0.0117188 C 194.113281 0.0117188 198.882812 1.984375 202.398438 5.503906 C 205.914062 9.019531 207.890625 13.789062 207.890625 18.761719 L 207.890625 185.871094 C 207.890625 190.84375 205.914062 195.613281 202.398438 199.132812 C 198.882812 202.648438 194.113281 204.621094 189.140625 204.621094 L 19.304688 204.621094 C 14.332031 204.621094 9.5625 202.648438 6.046875 199.132812 C 2.527344 195.613281 0.554688 190.84375 0.554688 185.871094 L 0.554688 18.761719 C 0.554688 13.789062 2.527344 9.019531 6.046875 5.503906 C 9.5625 1.984375 14.332031 0.0117188 19.304688 0.0117188 Z M 19.304688 0.0117188 " clip-rule="nonzero"/></clipPath><clipPath id="716b45451e"><rect x="0" width="208" y="0" height="205"/></clipPath><clipPath id="985e8b71e6"><path d="M 30.1875 80.378906 L 237.996094 80.378906 L 237.996094 284.988281 L 30.1875 284.988281 Z M 30.1875 80.378906 " clip-rule="nonzero"/></clipPath><clipPath id="5baa36cf86"><path d="M 48.9375 80.378906 L 218.773438 80.378906 C 223.746094 80.378906 228.515625 82.351562 232.03125 85.867188 C 235.546875 89.386719 237.523438 94.15625 237.523438 99.128906 L 237.523438 266.238281 C 237.523438 271.210938 235.546875 275.980469 232.03125 279.496094 C 228.515625 283.015625 223.746094 284.988281 218.773438 284.988281 L 48.9375 284.988281 C 43.964844 284.988281 39.195312 283.015625 35.679688 279.496094 C 32.160156 275.980469 30.1875 271.210938 30.1875 266.238281 L 30.1875 99.128906 C 30.1875 94.15625 32.160156 89.386719 35.679688 85.867188 C 39.195312 82.351562 43.964844 80.378906 48.9375 80.378906 Z M 48.9375 80.378906 " clip-rule="nonzero"/></clipPath><clipPath id="4005a16aa1"><path d="M 0.1875 0.378906 L 207.601562 0.378906 L 207.601562 204.988281 L 0.1875 204.988281 Z M 0.1875 0.378906 " clip-rule="nonzero"/></clipPath><clipPath id="6d3db1d48b"><path d="M 18.9375 0.378906 L 188.773438 0.378906 C 193.746094 0.378906 198.515625 2.351562 202.03125 5.867188 C 205.546875 9.386719 207.523438 14.15625 207.523438 19.128906 L 207.523438 186.238281 C 207.523438 191.210938 205.546875 195.980469 202.03125 199.496094 C 198.515625 203.015625 193.746094 204.988281 188.773438 204.988281 L 18.9375 204.988281 C 13.964844 204.988281 9.195312 203.015625 5.679688 199.496094 C 2.160156 195.980469 0.1875 191.210938 0.1875 186.238281 L 0.1875 19.128906 C 0.1875 14.15625 2.160156 9.386719 5.679688 5.867188 C 9.195312 2.351562 13.964844 0.378906 18.9375 0.378906 Z M 18.9375 0.378906 " clip-rule="nonzero"/></clipPath><clipPath id="2e03742a3d"><rect x="0" width="208" y="0" height="205"/></clipPath><clipPath id="bbd9e79aa8"><path d="M 90 130 L 189 130 L 189 230 L 90 230 Z M 90 130 " clip-rule="nonzero"/></clipPath><clipPath id="aa75ae5f30"><path d="M 83.265625 145.929688 L 140.011719 89.183594 L 230.699219 179.871094 L 173.953125 236.617188 Z M 83.265625 145.929688 " clip-rule="nonzero"/></clipPath><clipPath id="7e1b4049a2"><path d="M 83.265625 145.929688 L 140.011719 89.183594 L 230.699219 179.871094 L 173.953125 236.617188 Z M 83.265625 145.929688 " clip-rule="nonzero"/></clipPath><clipPath id="163831eeae"><path d="M 147.46875 147.589844 L 172.21875 147.589844 L 172.21875 172.339844 L 147.46875 172.339844 Z M 147.46875 147.589844 " clip-rule="nonzero"/></clipPath><clipPath id="fddad83f51"><path d="M 67 175 L 142 175 L 142 250 L 67 250 Z M 67 175 " clip-rule="nonzero"/></clipPath><clipPath id="80cc83de2d"><path d="M 62.097656 187.109375 L 104.523438 144.683594 L 172.40625 212.566406 L 129.980469 254.992188 Z M 62.097656 187.109375 " clip-rule="nonzero"/></clipPath><clipPath id="271ce55bd7"><path d="M 62.097656 187.109375 L 104.523438 144.683594 L 172.40625 212.566406 L 129.980469 254.992188 Z M 62.097656 187.109375 " clip-rule="nonzero"/></clipPath><clipPath id="6e5ead2e38"><path d="M 110 188.351562 L 128.703125 188.351562 L 128.703125 207 L 110 207 Z M 110 188.351562 " clip-rule="nonzero"/></clipPath><clipPath id="82988e221c"><rect x="0" width="846" y="0" height="259"/></clipPath></defs><g clip-path="url(#881ccc1bf8)"><g clip-path="url(#f51ba9ac01)"><g transform="matrix(1, 0, 0, 1, 20, 90)"><g clip-path="url(#716b45451e)"><g clip-path="url(#a7e2910404)"><g clip-path="url(#f31ef70f46)"><path fill="#000000" d="M 0.554688 0.0117188 L 207.5625 0.0117188 L 207.5625 204.621094 L 0.554688 204.621094 Z M 0.554688 0.0117188 " fill-opacity="1" fill-rule="nonzero"/></g></g></g></g></g></g><g clip-path="url(#985e8b71e6)"><g clip-path="url(#5baa36cf86)"><g transform="matrix(1, 0, 0, 1, 30, 80)"><g clip-path="url(#2e03742a3d)"><g clip-path="url(#4005a16aa1)"><g clip-path="url(#6d3db1d48b)"><path fill="#1364db" d="M 0.1875 0.378906 L 207.195312 0.378906 L 207.195312 204.988281 L 0.1875 204.988281 Z M 0.1875 0.378906 " fill-opacity="1" fill-rule="nonzero"/></g></g></g></g></g></g><g clip-path="url(#bbd9e79aa8)"><g clip-path="url(#aa75ae5f30)"><g clip-path="url(#7e1b4049a2)"><path fill="#fff7e9" d="M 103.992188 130.917969 C 100.3125 130.917969 96.851562 132.347656 94.246094 134.953125 C 91.640625 137.554688 90.21875 141.011719 90.21875 144.691406 C 90.21875 152.289062 96.402344 158.46875 104 158.484375 L 158.980469 158.539062 C 160.246094 158.539062 161.269531 159.5625 161.269531 160.828125 L 161.328125 215.8125 C 161.332031 223.402344 167.519531 229.589844 175.117188 229.589844 C 178.800781 229.597656 182.253906 228.167969 184.859375 225.5625 C 187.460938 222.960938 188.898438 219.503906 188.890625 215.816406 L 188.859375 144.742188 C 188.859375 141.050781 187.429688 137.585938 184.828125 134.984375 C 182.222656 132.378906 178.757812 130.949219 175.074219 130.957031 L 103.992188 130.917969 " fill-opacity="1" fill-rule="nonzero"/></g></g></g><g clip-path="url(#163831eeae)"><path fill="#fff7e9" d="M 161.136719 172.480469 L 172.21875 172.480469 C 172.21875 158.734375 161.074219 147.589844 147.328125 147.589844 L 147.328125 158.675781 C 154.953125 158.675781 161.136719 164.855469 161.136719 172.480469 Z M 161.136719 172.480469 " fill-opacity="1" fill-rule="nonzero"/></g><g clip-path="url(#fddad83f51)"><g clip-path="url(#80cc83de2d)"><g clip-path="url(#271ce55bd7)"><path fill="#fff7e9" d="M 77.617188 175.867188 C 74.863281 175.867188 72.269531 176.9375 70.320312 178.886719 C 68.367188 180.839844 67.304688 183.429688 67.304688 186.183594 C 67.304688 191.871094 71.933594 196.5 77.621094 196.511719 L 118.796875 196.554688 C 119.746094 196.554688 120.511719 197.320312 120.511719 198.265625 L 120.554688 239.441406 C 120.558594 245.128906 125.191406 249.761719 130.882812 249.761719 C 133.640625 249.765625 136.226562 248.695312 138.175781 246.746094 C 140.125 244.796875 141.199219 242.207031 141.195312 239.445312 L 141.171875 186.21875 C 141.171875 183.457031 140.101562 180.863281 138.152344 178.914062 C 136.203125 176.960938 133.609375 175.890625 130.847656 175.898438 L 77.617188 175.867188 " fill-opacity="1" fill-rule="nonzero"/></g></g></g><g clip-path="url(#6e5ead2e38)"><path fill="#fff7e9" d="M 120.40625 206.984375 L 128.703125 206.984375 C 128.703125 196.695312 120.359375 188.351562 110.070312 188.351562 L 110.070312 196.648438 C 115.777344 196.648438 120.40625 201.277344 120.40625 206.984375 Z M 120.40625 206.984375 " fill-opacity="1" fill-rule="nonzero"/></g><g transform="matrix(1, 0, 0, 1, 261, 53)"><g clip-path="url(#82988e221c)"><g fill="#232324" fill-opacity="1"><g transform="translate(-6.055526, 224.902316)"><g><path d="M 19.875 0 C 17.132812 0 14.789062 -0.96875 12.84375 -2.90625 C 10.90625 -4.851562 9.9375 -7.195312 9.9375 -9.9375 L 9.9375 -34.5625 C 9.9375 -37.4375 10.90625 -39.8125 12.84375 -41.6875 C 14.789062 -43.5625 17.132812 -44.5 19.875 -44.5 L 107.984375 -44.5 C 110.867188 -44.5 113.242188 -45.429688 115.109375 -47.296875 C 116.984375 -49.171875 117.921875 -51.476562 117.921875 -54.21875 C 117.921875 -56.945312 116.984375 -59.28125 115.109375 -61.21875 C 113.242188 -63.164062 110.867188 -64.140625 107.984375 -64.140625 L 57.234375 -64.140625 C 48.160156 -64.140625 40.0625 -66.191406 32.9375 -70.296875 C 25.8125 -74.398438 20.195312 -80.015625 16.09375 -87.140625 C 11.988281 -94.273438 9.9375 -102.378906 9.9375 -111.453125 L 9.9375 -125.484375 C 9.9375 -134.703125 11.988281 -142.835938 16.09375 -149.890625 C 20.195312 -156.941406 25.8125 -162.519531 32.9375 -166.625 C 40.0625 -170.726562 48.160156 -172.78125 57.234375 -172.78125 L 163.9375 -172.78125 C 166.8125 -172.78125 169.1875 -171.84375 171.0625 -169.96875 C 172.9375 -168.101562 173.875 -165.734375 173.875 -162.859375 L 173.875 -138.453125 C 173.875 -135.710938 172.9375 -133.367188 171.0625 -131.421875 C 169.1875 -129.484375 166.8125 -128.515625 163.9375 -128.515625 L 75.59375 -128.515625 C 72.851562 -128.515625 70.546875 -127.578125 68.671875 -125.703125 C 66.804688 -123.828125 65.875 -121.453125 65.875 -118.578125 C 65.875 -115.835938 66.804688 -113.53125 68.671875 -111.65625 C 70.546875 -109.789062 72.851562 -108.859375 75.59375 -108.859375 L 126.5625 -108.859375 C 135.78125 -108.859375 143.914062 -106.804688 150.96875 -102.703125 C 158.03125 -98.597656 163.613281 -93.015625 167.71875 -85.953125 C 171.820312 -78.898438 173.875 -70.769531 173.875 -61.5625 L 173.875 -47.515625 C 173.875 -38.441406 171.820312 -30.304688 167.71875 -23.109375 C 163.613281 -15.910156 158.03125 -10.257812 150.96875 -6.15625 C 143.914062 -2.050781 135.78125 0 126.5625 0 Z M 19.875 0 "/></g></g></g><g fill="#232324" fill-opacity="1"><g transform="translate(177.74521, 224.902316)"><g><path d="M 58.3125 0 C 48.957031 0 40.644531 -2.085938 33.375 -6.265625 C 26.101562 -10.441406 20.378906 -16.203125 16.203125 -23.546875 C 12.023438 -30.890625 9.9375 -39.238281 9.9375 -48.59375 L 9.9375 -124.40625 C 9.9375 -133.769531 12.023438 -142.085938 16.203125 -149.359375 C 20.378906 -156.628906 26.101562 -162.347656 33.375 -166.515625 C 40.644531 -170.691406 48.957031 -172.78125 58.3125 -172.78125 L 163.9375 -172.78125 C 166.8125 -172.78125 169.1875 -171.84375 171.0625 -169.96875 C 172.9375 -168.101562 173.875 -165.734375 173.875 -162.859375 L 173.875 -134.125 C 173.875 -131.382812 172.9375 -129.039062 171.0625 -127.09375 C 169.1875 -125.15625 166.8125 -124.1875 163.9375 -124.1875 L 75.59375 -124.1875 C 72.851562 -124.1875 70.546875 -123.25 68.671875 -121.375 C 66.804688 -119.507812 65.875 -117.132812 65.875 -114.25 L 65.875 -58.53125 C 65.875 -55.789062 66.804688 -53.484375 68.671875 -51.609375 C 70.546875 -49.742188 72.851562 -48.8125 75.59375 -48.8125 L 163.9375 -48.8125 C 166.8125 -48.8125 169.1875 -47.875 171.0625 -46 C 172.9375 -44.132812 173.875 -41.757812 173.875 -38.875 L 173.875 -10.15625 C 173.875 -7.414062 172.9375 -5.035156 171.0625 -3.015625 C 169.1875 -1.003906 166.8125 0 163.9375 0 Z M 58.3125 0 "/></g></g></g><g fill="#232324" fill-opacity="1"><g transform="translate(361.545947, 224.902316)"><g><path d="M 19.875 0 C 17.132812 0 14.789062 -0.96875 12.84375 -2.90625 C 10.90625 -4.851562 9.9375 -7.195312 9.9375 -9.9375 L 9.9375 -124.40625 C 9.9375 -133.769531 12.023438 -142.085938 16.203125 -149.359375 C 20.378906 -156.628906 26.101562 -162.347656 33.375 -166.515625 C 40.644531 -170.691406 48.957031 -172.78125 58.3125 -172.78125 L 93.09375 -172.78125 C 102.445312 -172.78125 110.757812 -170.691406 118.03125 -166.515625 C 125.300781 -162.347656 131.023438 -156.628906 135.203125 -149.359375 C 139.378906 -142.085938 141.46875 -133.769531 141.46875 -124.40625 L 141.46875 -9.9375 C 141.46875 -7.195312 140.53125 -4.851562 138.65625 -2.90625 C 136.789062 -0.96875 134.414062 0 131.53125 0 L 95.46875 0 C 92.726562 0 90.382812 -0.96875 88.4375 -2.90625 C 86.5 -4.851562 85.53125 -7.195312 85.53125 -9.9375 L 85.53125 -37.796875 C 85.53125 -40.535156 84.59375 -42.875 82.71875 -44.8125 C 80.851562 -46.757812 78.476562 -47.734375 75.59375 -47.734375 C 72.851562 -47.734375 70.546875 -46.796875 68.671875 -44.921875 C 66.804688 -43.046875 65.875 -40.671875 65.875 -37.796875 L 65.875 -9.9375 C 65.875 -7.195312 64.9375 -4.851562 63.0625 -2.90625 C 61.195312 -0.96875 58.820312 0 55.9375 0 Z M 75.59375 -87.90625 C 78.476562 -87.90625 80.851562 -88.835938 82.71875 -90.703125 C 84.59375 -92.578125 85.53125 -94.882812 85.53125 -97.625 L 85.53125 -117.5 C 85.53125 -120.375 84.59375 -122.75 82.71875 -124.625 C 80.851562 -126.5 78.476562 -127.4375 75.59375 -127.4375 C 72.851562 -127.4375 70.546875 -126.5 68.671875 -124.625 C 66.804688 -122.75 65.875 -120.375 65.875 -117.5 L 65.875 -97.625 C 65.875 -94.882812 66.804688 -92.578125 68.671875 -90.703125 C 70.546875 -88.835938 72.851562 -87.90625 75.59375 -87.90625 Z M 75.59375 -87.90625 "/></g></g></g><g fill="#232324" fill-opacity="1"><g transform="translate(512.949388, 224.902316)"><g><path d="M 19.875 0 C 17.132812 0 14.789062 -0.96875 12.84375 -2.90625 C 10.90625 -4.851562 9.9375 -7.195312 9.9375 -9.9375 L 9.9375 -162.859375 C 9.9375 -165.734375 10.90625 -168.101562 12.84375 -169.96875 C 14.789062 -171.84375 17.132812 -172.78125 19.875 -172.78125 L 55.9375 -172.78125 C 58.820312 -172.78125 61.195312 -171.84375 63.0625 -169.96875 C 64.9375 -168.101562 65.875 -165.734375 65.875 -162.859375 L 65.875 -58.53125 C 65.875 -55.789062 66.84375 -53.484375 68.78125 -51.609375 C 70.726562 -49.742188 73.070312 -48.8125 75.8125 -48.8125 L 120.734375 -48.8125 C 123.617188 -48.8125 125.992188 -47.875 127.859375 -46 C 129.734375 -44.132812 130.671875 -41.757812 130.671875 -38.875 L 130.671875 -9.9375 C 130.671875 -7.195312 129.734375 -4.851562 127.859375 -2.90625 C 125.992188 -0.96875 123.617188 0 120.734375 0 Z M 19.875 0 "/></g></g></g><g fill="#232324" fill-opacity="1"><g transform="translate(653.553714, 224.902316)"><g><path d="M 19.875 0 C 17.132812 0 14.789062 -0.96875 12.84375 -2.90625 C 10.90625 -4.851562 9.9375 -7.195312 9.9375 -9.9375 L 9.9375 -34.984375 C 9.9375 -37.867188 10.90625 -40.242188 12.84375 -42.109375 C 14.789062 -43.984375 17.132812 -44.921875 19.875 -44.921875 L 108.203125 -44.921875 C 110.941406 -44.921875 113.242188 -45.890625 115.109375 -47.828125 C 116.984375 -49.773438 117.921875 -52.117188 117.921875 -54.859375 C 117.921875 -57.597656 116.984375 -59.898438 115.109375 -61.765625 C 113.242188 -63.640625 110.941406 -64.578125 108.203125 -64.578125 L 27.4375 -64.578125 C 24.695312 -64.578125 22.351562 -65.546875 20.40625 -67.484375 C 18.46875 -69.429688 17.5 -71.773438 17.5 -74.515625 L 17.5 -98.921875 C 17.5 -101.796875 18.46875 -104.171875 20.40625 -106.046875 C 22.351562 -107.921875 24.695312 -108.859375 27.4375 -108.859375 L 108.203125 -108.859375 C 110.941406 -108.859375 113.242188 -109.789062 115.109375 -111.65625 C 116.984375 -113.53125 117.921875 -115.835938 117.921875 -118.578125 C 117.921875 -121.304688 116.984375 -123.644531 115.109375 -125.59375 C 113.242188 -127.539062 110.941406 -128.515625 108.203125 -128.515625 L 19.875 -128.515625 C 17.132812 -128.515625 14.789062 -129.484375 12.84375 -131.421875 C 10.90625 -133.367188 9.9375 -135.710938 9.9375 -138.453125 L 9.9375 -162.859375 C 9.9375 -165.734375 10.90625 -168.101562 12.84375 -169.96875 C 14.789062 -171.84375 17.132812 -172.78125 19.875 -172.78125 L 132.390625 -172.78125 C 140.460938 -172.78125 147.628906 -170.976562 153.890625 -167.375 C 160.148438 -163.78125 165.078125 -158.851562 168.671875 -152.59375 C 172.273438 -146.332031 174.078125 -139.171875 174.078125 -131.109375 L 174.078125 -113.828125 C 174.078125 -108.785156 172.421875 -104.609375 169.109375 -101.296875 C 165.796875 -97.984375 161.550781 -96.328125 156.375 -96.328125 L 151.84375 -96.328125 C 149.101562 -96.328125 146.90625 -95.351562 145.25 -93.40625 C 143.59375 -91.46875 142.765625 -89.128906 142.765625 -86.390625 C 142.765625 -83.660156 143.59375 -81.359375 145.25 -79.484375 C 146.90625 -77.609375 149.101562 -76.671875 151.84375 -76.671875 L 156.375 -76.671875 C 161.550781 -76.671875 165.796875 -75.015625 169.109375 -71.703125 C 172.421875 -68.390625 174.078125 -64.144531 174.078125 -58.96875 L 174.078125 -41.90625 C 174.078125 -33.84375 172.273438 -26.640625 168.671875 -20.296875 C 165.078125 -13.960938 160.148438 -8.992188 153.890625 -5.390625 C 147.628906 -1.796875 140.460938 0 132.390625 0 Z M 19.875 0 "/></g></g></g><g fill="#1364db" fill-opacity="1"><g transform="translate(0.912852, 214.950439)"><g><path d="M 19.875 0 C 17.132812 0 14.789062 -0.96875 12.84375 -2.90625 C 10.90625 -4.851562 9.9375 -7.195312 9.9375 -9.9375 L 9.9375 -34.5625 C 9.9375 -37.4375 10.90625 -39.8125 12.84375 -41.6875 C 14.789062 -43.5625 17.132812 -44.5 19.875 -44.5 L 107.984375 -44.5 C 110.867188 -44.5 113.242188 -45.429688 115.109375 -47.296875 C 116.984375 -49.171875 117.921875 -51.476562 117.921875 -54.21875 C 117.921875 -56.945312 116.984375 -59.28125 115.109375 -61.21875 C 113.242188 -63.164062 110.867188 -64.140625 107.984375 -64.140625 L 57.234375 -64.140625 C 48.160156 -64.140625 40.0625 -66.191406 32.9375 -70.296875 C 25.8125 -74.398438 20.195312 -80.015625 16.09375 -87.140625 C 11.988281 -94.273438 9.9375 -102.378906 9.9375 -111.453125 L 9.9375 -125.484375 C 9.9375 -134.703125 11.988281 -142.835938 16.09375 -149.890625 C 20.195312 -156.941406 25.8125 -162.519531 32.9375 -166.625 C 40.0625 -170.726562 48.160156 -172.78125 57.234375 -172.78125 L 163.9375 -172.78125 C 166.8125 -172.78125 169.1875 -171.84375 171.0625 -169.96875 C 172.9375 -168.101562 173.875 -165.734375 173.875 -162.859375 L 173.875 -138.453125 C 173.875 -135.710938 172.9375 -133.367188 171.0625 -131.421875 C 169.1875 -129.484375 166.8125 -128.515625 163.9375 -128.515625 L 75.59375 -128.515625 C 72.851562 -128.515625 70.546875 -127.578125 68.671875 -125.703125 C 66.804688 -123.828125 65.875 -121.453125 65.875 -118.578125 C 65.875 -115.835938 66.804688 -113.53125 68.671875 -111.65625 C 70.546875 -109.789062 72.851562 -108.859375 75.59375 -108.859375 L 126.5625 -108.859375 C 135.78125 -108.859375 143.914062 -106.804688 150.96875 -102.703125 C 158.03125 -98.597656 163.613281 -93.015625 167.71875 -85.953125 C 171.820312 -78.898438 173.875 -70.769531 173.875 -61.5625 L 173.875 -47.515625 C 173.875 -38.441406 171.820312 -30.304688 167.71875 -23.109375 C 163.613281 -15.910156 158.03125 -10.257812 150.96875 -6.15625 C 143.914062 -2.050781 135.78125 0 126.5625 0 Z M 19.875 0 "/></g></g></g><g fill="#1364db" fill-opacity="1"><g transform="translate(184.713588, 214.950439)"><g><path d="M 58.3125 0 C 48.957031 0 40.644531 -2.085938 33.375 -6.265625 C 26.101562 -10.441406 20.378906 -16.203125 16.203125 -23.546875 C 12.023438 -30.890625 9.9375 -39.238281 9.9375 -48.59375 L 9.9375 -124.40625 C 9.9375 -133.769531 12.023438 -142.085938 16.203125 -149.359375 C 20.378906 -156.628906 26.101562 -162.347656 33.375 -166.515625 C 40.644531 -170.691406 48.957031 -172.78125 58.3125 -172.78125 L 163.9375 -172.78125 C 166.8125 -172.78125 169.1875 -171.84375 171.0625 -169.96875 C 172.9375 -168.101562 173.875 -165.734375 173.875 -162.859375 L 173.875 -134.125 C 173.875 -131.382812 172.9375 -129.039062 171.0625 -127.09375 C 169.1875 -125.15625 166.8125 -124.1875 163.9375 -124.1875 L 75.59375 -124.1875 C 72.851562 -124.1875 70.546875 -123.25 68.671875 -121.375 C 66.804688 -119.507812 65.875 -117.132812 65.875 -114.25 L 65.875 -58.53125 C 65.875 -55.789062 66.804688 -53.484375 68.671875 -51.609375 C 70.546875 -49.742188 72.851562 -48.8125 75.59375 -48.8125 L 163.9375 -48.8125 C 166.8125 -48.8125 169.1875 -47.875 171.0625 -46 C 172.9375 -44.132812 173.875 -41.757812 173.875 -38.875 L 173.875 -10.15625 C 173.875 -7.414062 172.9375 -5.035156 171.0625 -3.015625 C 169.1875 -1.003906 166.8125 0 163.9375 0 Z M 58.3125 0 "/></g></g></g><g fill="#1364db" fill-opacity="1"><g transform="translate(368.514325, 214.950439)"><g><path d="M 19.875 0 C 17.132812 0 14.789062 -0.96875 12.84375 -2.90625 C 10.90625 -4.851562 9.9375 -7.195312 9.9375 -9.9375 L 9.9375 -124.40625 C 9.9375 -133.769531 12.023438 -142.085938 16.203125 -149.359375 C 20.378906 -156.628906 26.101562 -162.347656 33.375 -166.515625 C 40.644531 -170.691406 48.957031 -172.78125 58.3125 -172.78125 L 93.09375 -172.78125 C 102.445312 -172.78125 110.757812 -170.691406 118.03125 -166.515625 C 125.300781 -162.347656 131.023438 -156.628906 135.203125 -149.359375 C 139.378906 -142.085938 141.46875 -133.769531 141.46875 -124.40625 L 141.46875 -9.9375 C 141.46875 -7.195312 140.53125 -4.851562 138.65625 -2.90625 C 136.789062 -0.96875 134.414062 0 131.53125 0 L 95.46875 0 C 92.726562 0 90.382812 -0.96875 88.4375 -2.90625 C 86.5 -4.851562 85.53125 -7.195312 85.53125 -9.9375 L 85.53125 -37.796875 C 85.53125 -40.535156 84.59375 -42.875 82.71875 -44.8125 C 80.851562 -46.757812 78.476562 -47.734375 75.59375 -47.734375 C 72.851562 -47.734375 70.546875 -46.796875 68.671875 -44.921875 C 66.804688 -43.046875 65.875 -40.671875 65.875 -37.796875 L 65.875 -9.9375 C 65.875 -7.195312 64.9375 -4.851562 63.0625 -2.90625 C 61.195312 -0.96875 58.820312 0 55.9375 0 Z M 75.59375 -87.90625 C 78.476562 -87.90625 80.851562 -88.835938 82.71875 -90.703125 C 84.59375 -92.578125 85.53125 -94.882812 85.53125 -97.625 L 85.53125 -117.5 C 85.53125 -120.375 84.59375 -122.75 82.71875 -124.625 C 80.851562 -126.5 78.476562 -127.4375 75.59375 -127.4375 C 72.851562 -127.4375 70.546875 -126.5 68.671875 -124.625 C 66.804688 -122.75 65.875 -120.375 65.875 -117.5 L 65.875 -97.625 C 65.875 -94.882812 66.804688 -92.578125 68.671875 -90.703125 C 70.546875 -88.835938 72.851562 -87.90625 75.59375 -87.90625 Z M 75.59375 -87.90625 "/></g></g></g><g fill="#1364db" fill-opacity="1"><g transform="translate(519.917766, 214.950439)"><g><path d="M 19.875 0 C 17.132812 0 14.789062 -0.96875 12.84375 -2.90625 C 10.90625 -4.851562 9.9375 -7.195312 9.9375 -9.9375 L 9.9375 -162.859375 C 9.9375 -165.734375 10.90625 -168.101562 12.84375 -169.96875 C 14.789062 -171.84375 17.132812 -172.78125 19.875 -172.78125 L 55.9375 -172.78125 C 58.820312 -172.78125 61.195312 -171.84375 63.0625 -169.96875 C 64.9375 -168.101562 65.875 -165.734375 65.875 -162.859375 L 65.875 -58.53125 C 65.875 -55.789062 66.84375 -53.484375 68.78125 -51.609375 C 70.726562 -49.742188 73.070312 -48.8125 75.8125 -48.8125 L 120.734375 -48.8125 C 123.617188 -48.8125 125.992188 -47.875 127.859375 -46 C 129.734375 -44.132812 130.671875 -41.757812 130.671875 -38.875 L 130.671875 -9.9375 C 130.671875 -7.195312 129.734375 -4.851562 127.859375 -2.90625 C 125.992188 -0.96875 123.617188 0 120.734375 0 Z M 19.875 0 "/></g></g></g><g fill="#1364db" fill-opacity="1"><g transform="translate(660.522092, 214.950439)"><g><path d="M 19.875 0 C 17.132812 0 14.789062 -0.96875 12.84375 -2.90625 C 10.90625 -4.851562 9.9375 -7.195312 9.9375 -9.9375 L 9.9375 -34.984375 C 9.9375 -37.867188 10.90625 -40.242188 12.84375 -42.109375 C 14.789062 -43.984375 17.132812 -44.921875 19.875 -44.921875 L 108.203125 -44.921875 C 110.941406 -44.921875 113.242188 -45.890625 115.109375 -47.828125 C 116.984375 -49.773438 117.921875 -52.117188 117.921875 -54.859375 C 117.921875 -57.597656 116.984375 -59.898438 115.109375 -61.765625 C 113.242188 -63.640625 110.941406 -64.578125 108.203125 -64.578125 L 27.4375 -64.578125 C 24.695312 -64.578125 22.351562 -65.546875 20.40625 -67.484375 C 18.46875 -69.429688 17.5 -71.773438 17.5 -74.515625 L 17.5 -98.921875 C 17.5 -101.796875 18.46875 -104.171875 20.40625 -106.046875 C 22.351562 -107.921875 24.695312 -108.859375 27.4375 -108.859375 L 108.203125 -108.859375 C 110.941406 -108.859375 113.242188 -109.789062 115.109375 -111.65625 C 116.984375 -113.53125 117.921875 -115.835938 117.921875 -118.578125 C 117.921875 -121.304688 116.984375 -123.644531 115.109375 -125.59375 C 113.242188 -127.539062 110.941406 -128.515625 108.203125 -128.515625 L 19.875 -128.515625 C 17.132812 -128.515625 14.789062 -129.484375 12.84375 -131.421875 C 10.90625 -133.367188 9.9375 -135.710938 9.9375 -138.453125 L 9.9375 -162.859375 C 9.9375 -165.734375 10.90625 -168.101562 12.84375 -169.96875 C 14.789062 -171.84375 17.132812 -172.78125 19.875 -172.78125 L 132.390625 -172.78125 C 140.460938 -172.78125 147.628906 -170.976562 153.890625 -167.375 C 160.148438 -163.78125 165.078125 -158.851562 168.671875 -152.59375 C 172.273438 -146.332031 174.078125 -139.171875 174.078125 -131.109375 L 174.078125 -113.828125 C 174.078125 -108.785156 172.421875 -104.609375 169.109375 -101.296875 C 165.796875 -97.984375 161.550781 -96.328125 156.375 -96.328125 L 151.84375 -96.328125 C 149.101562 -96.328125 146.90625 -95.351562 145.25 -93.40625 C 143.59375 -91.46875 142.765625 -89.128906 142.765625 -86.390625 C 142.765625 -83.660156 143.59375 -81.359375 145.25 -79.484375 C 146.90625 -77.609375 149.101562 -76.671875 151.84375 -76.671875 L 156.375 -76.671875 C 161.550781 -76.671875 165.796875 -75.015625 169.109375 -71.703125 C 172.421875 -68.390625 174.078125 -64.144531 174.078125 -58.96875 L 174.078125 -41.90625 C 174.078125 -33.84375 172.273438 -26.640625 168.671875 -20.296875 C 165.078125 -13.960938 160.148438 -8.992188 153.890625 -5.390625 C 147.628906 -1.796875 140.460938 0 132.390625 0 Z M 19.875 0 "/></g></g></g></g></g></svg>